<?xml version="1.0" encoding="utf-8"?>
<!-- Generator: Adobe Illustrator 23.0.1, SVG Export Plug-In . SVG Version: 6.00 Build 0)  -->
<svg version="1.1" id="Слой_1" xmlns="http://www.w3.org/2000/svg" xmlns:xlink="http://www.w3.org/1999/xlink" x="0px" y="0px"
	 viewBox="0 0 273 183" style="enable-background:new 0 0 273 183;" xml:space="preserve">
<style type="text/css">
	.st0{fill:#EFEFEF;}
	.st1{fill:#C64747;}
	.st2{fill:#1E1E1E;}
</style>
<path class="st0" d="M62.8,42.8h-3.1L36.2,13.2v23.1c0,1.5,0.4,2.6,1.3,3.1c0.9,0.6,2.8,0.9,5.8,0.9h4.5v2.5H19.4v-2.5h4.8
	c2.6,0,4.4-0.3,5.2-0.9c0.9-0.6,1.3-1.6,1.3-3.1V18c0-1.3-0.4-2.3-1.2-2.9c-0.8-0.6-2.6-0.8-5.4-0.8h-4.8v-2.5h27.5l17.9,22.3
	l19-22.3h28.4v2.5h-6.7c-3.9,0-5.8,0.9-5.8,2.7v21.1c0,1.5,1.7,2.2,5,2.2h7.3v2.5H75.4v-2.5h6.8c3.9,0,5.9-0.9,5.9-2.8V13.4
	L62.8,42.8z"/>
<path class="st0" d="M188,39.4l2.5,1.9c-3.3,1.7-7,2.5-11.1,2.5c-3.1,0-5.7-0.4-7.8-1.2c-2.1-0.8-4-2.3-5.6-4.3
	c-4.3,2.2-8.2,3.7-11.4,4.4c-3.3,0.7-7.2,1.1-11.9,1.1c-6.6,0-11.6-0.7-15-2.1c-3.4-1.4-5.1-3.1-5.1-5.3c0-3.2,3.9-5.9,11.8-8
	c7.8-2.1,18.3-3.5,31.3-4.3v-4.7c0-1.7-1.4-3.1-4.2-4.3c-2.8-1.2-6.3-1.8-10.6-1.8c-4,0-7.4,0.4-10.3,1.2c-2.1,0.6-3.1,1.2-3.1,1.8
	c0,0.3,0.5,0.8,1.6,1.6c1.3,0.9,2,1.7,2,2.4c0,1-0.7,1.8-2,2.4c-1.3,0.6-3.1,0.9-5.2,0.9c-2.3,0-4.2-0.4-5.7-1.1
	c-1.5-0.7-2.3-1.7-2.3-2.9c0-2.2,2.5-4.2,7.6-6c5.1-1.8,11.8-2.7,20-2.7c7.6,0,13.5,0.8,17.5,2.4c4,1.6,6,3.6,6,5.9V36
	c0,1.5,0.5,2.6,1.5,3.3c1,0.7,2.3,1.1,3.9,1.1C184.1,40.4,186,40.1,188,39.4z M165.5,26.3c-11.6,0.8-19.8,2-24.7,3.8
	c-3.6,1.3-5.4,3.2-5.4,5.6c0,1.7,0.9,3,2.8,4c1.9,1,4.3,1.4,7.3,1.4c5.4,0,10.1-1,14-3c4-2,5.9-4.5,5.9-7.4V26.3z"/>
<path class="st0" d="M200.4,22.8h-5.1l1.6-11.1h61.9l1.6,11.1h-5.1c-1.5-3.7-3.4-6.1-5.8-7.1c-2.4-1-5.4-1.5-9-1.5h-7.2v23.8
	c0,1.5,1.7,2.2,5,2.2h7.3v2.5h-36.5v-2.5h6.8c3.9,0,5.9-0.9,5.9-2.8V14.3h-6.4c-4.1,0-7.2,0.6-9.5,1.7
	C203.4,17.1,201.6,19.4,200.4,22.8z"/>
<path class="st0" d="M19.4,89.8v-2.5h6.8c3.9,0,5.9-0.9,5.9-2.8V63.4c0-1.4-1.6-2.1-4.9-2.1h-7.3v-2.5h36.1c6.6,0,11.6,0.2,14.8,0.6
	c3.3,0.4,6,1.2,8.3,2.5c2.3,1.3,3.4,2.8,3.4,4.6c0,2.2-1.8,4-5.5,5.3c-3.7,1.3-7.8,2-12.4,2.1c13.7,0.9,20.6,3.6,20.6,8
	c0,5.3-8.9,8-26.8,8H19.4z M43.6,72.7h9.4c11.2,0,16.7-1.9,16.7-5.6c0-3.9-5.1-5.8-15.2-5.8h-4c-4.6,0-7,0.9-7,2.8V72.7z M43.6,75.2
	v9.3c0,1,0.4,1.7,1.3,2.2c0.9,0.4,2.4,0.7,4.5,0.7H55c7.2,0,11.8-0.5,13.8-1.6c2.1-1.1,3.1-2.4,3.1-4.1c0-4.3-5.5-6.4-16.6-6.4H43.6
	z"/>
<path class="st0" d="M151.3,64.1v-1.3c-0.4-1-2-1.5-4.9-1.5h-7.3v-2.5h36.1v2.5h-6.5c-3.9,0-5.8,0.9-5.8,2.8v21c0,1.5,1.7,2.2,5,2.2
	h7.3v2.5h-36.5v-2.5h6.8c3.9,0,5.8-0.9,5.8-2.8v-17L119,83.9v1.2c0,1.5,1.6,2.2,4.9,2.2h7.5v2.5H94.8v-2.5h6.8
	c3.9,0,5.8-0.9,5.8-2.8V63.5c0-1.5-1.6-2.2-4.9-2.2h-7.3v-2.5h36.2v2.5h-6.6c-3.9,0-5.8,0.9-5.8,2.8v16.5L151.3,64.1z"/>
<path class="st0" d="M255.7,61.3h6.5v-2.5h-36.1v2.5h7.3c2.9,0,4.5,0.5,4.9,1.5v1.3L206,80.6V64.1c0-1.9,1.9-2.8,5.8-2.8h6.6v-2.5
	h-36.2v2.5h7.3c3.3,0,4.9,0.7,4.9,2.2v21.1c0,1.9-1.9,2.8-5.8,2.8h-6.8v2.5h36.6v-2.5H211c-3.3,0-4.9-0.7-4.9-2.2v-1.2l32.3-16.4v17
	c0,1.9-1.9,2.8-5.8,2.8h-6.8v2.5h36.5v-2.5h-7.3c-3.3,0-5-0.7-5-2.2v-21C249.9,62.2,251.8,61.3,255.7,61.3z"/>
<g>
	<path class="st1" d="M24.7,108.9v-4.2h34.1v4.2h-5.6c-3.9,0-5.8,1.5-5.8,4.6v8.8c0,3.2,1.1,5.7,3.2,7.4c2.2,1.7,5.1,2.6,8.7,2.6
		c2.9,0,6.1-0.7,9.5-2c3.4-1.3,6.3-3,8.5-5v-12.7c0-2.5-1.7-3.7-5-3.7h-5.6v-4.2h34.5v4.2h-6.5c-3.9,0-5.9,1.5-5.9,4.6v35.4
		c0,2.5,1.7,3.7,5,3.7h7.4v4.2H64.6v-4.2h6.8c3.9,0,5.8-1.6,5.8-4.7v-18.3c-6.8,5.4-14.1,8.1-21.8,8.1c-4.9,0-9.4-1.1-13.5-3.4
		c-4.2-2.3-6.2-6.7-6.2-13.3v-8.4c0-2.5-1.7-3.7-5-3.7H24.7z"/>
	<path class="st1" d="M107.7,104.7h30.8v3.8h-2.9c-2.7,0-4.5,0.3-5.5,0.9c-1,0.6-1.5,1.4-1.5,2.5c0,0.5,0.1,1,0.4,1.4l17.9,31.3
		l13.3-26c1-1.9,1.4-3.7,1.4-5.4c0-1.4-0.7-2.4-2-3.2c-1.3-0.8-4-1.3-7.9-1.5v-3.8h26.7v3.8c-5.2,0.4-8.6,2.3-10.4,5.6L144.2,159
		c-4,7.6-8.1,12.9-12.2,15.7c-4.1,2.9-8.5,4.3-13.2,4.3c-3.4,0-6.2-0.8-8.3-2.3c-2.1-1.5-3.1-3.4-3.1-5.6c0-1.7,0.6-3,1.9-4.1
		c1.3-1.1,2.9-1.6,4.8-1.6c1.7,0,3.2,0.5,4.4,1.4c1.2,0.9,1.8,2,1.8,3.3c0,0.4-0.1,1-0.3,1.7c-0.2,0.6-0.3,1-0.3,1.2
		c0,0.9,0.7,1.3,2.1,1.3c1.5,0,3.2-0.4,5.1-1.3c1.9-0.9,3.7-2.3,5.3-4.3c1.6-2,4.5-6.3,8.7-13.1l-24.4-42.4
		c-0.9-1.5-1.9-2.6-3.2-3.3c-1.3-0.7-3.2-1.2-5.7-1.5V104.7z"/>
	<path class="st1" d="M219.6,152.6v4.2h-36.5v-4.2h7.2c3.7,0,5.5-1.3,5.5-3.8v-36.3c0-2.5-1.7-3.7-5-3.7h-7.3v-4.2h36v4.2h-6.4
		c-3.9,0-5.9,1.5-5.9,4.6v15.1h7.8c4.7,0,8.1-0.8,10.2-2.3c2.1-1.5,3.7-4.5,4.8-9c0.9-3.7,1.8-6.3,2.5-7.8c0.8-1.5,2.2-2.8,4.3-3.9
		c2.1-1.1,4.5-1.7,7.3-1.7c3.8,0,6.7,1,8.6,3.1c2,2.1,2.9,4.2,2.9,6.4c0,1.7-0.6,3.2-1.9,4.4c-1.3,1.2-3.1,1.8-5.5,1.8
		c-2.2,0-3.9-0.5-5-1.6c-1.1-1.1-1.7-2.3-1.7-3.8c0-1.2,0.4-2.4,1.1-3.4c0.7-1,1-1.6,1-1.8c0-0.5-0.5-0.8-1.4-0.8
		c-1.6,0-3.1,0.5-4.2,1.6c-1.2,1.1-2.2,3.3-2.9,6.6c-1.2,5.1-2.5,8.4-4,9.9c-1.5,1.5-3.6,2.9-6.3,4.3c8.5,0.9,13.9,4,16,9.1l3,7.3
		c1.3,3.2,2.8,4.8,4.5,4.8c2.1,0,3.6-2.5,4.4-7.4h4.9c-0.9,5.6-2.5,9.2-4.9,10.8c-2.4,1.6-5.3,2.3-8.8,2.3c-5.6,0-9.3-2.6-11.1-7.8
		l-3.1-8.6c-2-5.9-6.5-8.8-13.5-8.8h-9v15.4c0,1.8,0.4,3.1,1.1,3.8c0.7,0.7,2,1.1,3.9,1.1H219.6z"/>
</g>
<g>
	<path class="st2" d="M212.1,53.7c5.9,0,11.7,0,17.6,0"/>
	<g>
		<path class="st0" d="M212.1,55.2c5.9,0,11.7,0,17.6,0c1.9,0,1.9-3,0-3c-5.9,0-11.7,0-17.6,0C210.2,52.2,210.2,55.2,212.1,55.2
			L212.1,55.2z"/>
	</g>
</g>
</svg>
